<svg version="1.1" id="Layer_1" xmlns="http://www.w3.org/2000/svg" xmlns:xlink="http://www.w3.org/1999/xlink" x="0px" y="0px"
	 width="100%" viewBox="0 0 2000 2250" enable-background="new 0 0 2000 2250" xml:space="preserve">

<path fill="#CE7650" opacity="1.000000" stroke="none" 
	d="
M1804.059326,1614.092896 
	C1807.097534,1604.301147 1810.135620,1594.509277 1813.419922,1583.924072 
	C1816.345947,1585.092896 1818.469482,1585.710693 1820.369385,1586.741211 
	C1827.560913,1590.641602 1834.026001,1589.122314 1839.486572,1583.711548 
	C1842.753174,1580.474731 1845.489014,1576.589111 1847.953735,1572.674194 
	C1865.498413,1544.805542 1886.822510,1520.368042 1913.099121,1500.391113 
	C1915.897827,1498.263428 1918.916870,1496.425537 1921.833618,1494.453125 
	C1922.495605,1494.894409 1923.157593,1495.335693 1923.819580,1495.776855 
	C1922.528320,1499.704590 1921.534180,1503.760986 1919.899048,1507.539917 
	C1905.364136,1541.129761 1891.272339,1574.926758 1875.970215,1608.165649 
	C1853.226196,1657.569214 1825.614502,1704.289673 1793.246460,1747.964111 
	C1773.651733,1774.403442 1752.219727,1799.487671 1731.409912,1825.015015 
	C1727.079224,1830.327148 1723.534180,1835.472046 1724.001587,1842.780640 
	C1724.207764,1846.007202 1723.140503,1849.354004 1722.420532,1852.594971 
	C1717.346313,1875.434570 1707.315186,1883.565063 1684.218994,1883.670898 
	C1678.891479,1883.695312 1673.427124,1883.016235 1668.271484,1883.978149 
	C1661.848633,1885.176392 1655.238525,1886.898926 1649.505249,1889.910400 
	C1640.856934,1894.453247 1639.918091,1899.118896 1643.962769,1908.141113 
	C1644.778198,1909.959839 1645.795166,1911.688477 1646.627197,1914.490723 
	C1646.298462,1915.757812 1646.061646,1915.992676 1645.824951,1916.227539 
	C1645.191284,1916.028931 1644.402100,1916.007080 1643.946533,1915.606079 
	C1630.843384,1904.078491 1616.220703,1904.349976 1600.828979,1909.856812 
	C1593.307251,1912.548096 1585.671143,1914.918457 1578.139771,1917.583984 
	C1575.427368,1918.543945 1572.870239,1919.942383 1569.961304,1921.268799 
	C1571.840576,1928.828491 1576.532959,1933.567139 1581.460205,1937.838501 
	C1590.055054,1945.289307 1595.326416,1954.805054 1599.400513,1965.087280 
	C1602.352905,1972.538330 1603.878784,1980.263794 1601.023560,1989.931885 
	C1594.973267,1983.621338 1589.763672,1978.250977 1584.628784,1972.810303 
	C1580.976074,1968.939941 1577.208618,1965.147217 1573.888184,1961.002686 
	C1570.623901,1956.928101 1567.286377,1957.061035 1563.572754,1959.918945 
	C1554.623291,1966.806519 1544.875854,1972.915039 1536.971924,1980.852783 
	C1515.607300,2002.308350 1495.031006,2024.549194 1474.153198,2046.489136 
	C1469.814575,2051.048340 1467.739380,2056.540527 1467.732666,2062.801758 
	C1467.725464,2069.462158 1467.802856,2076.122559 1467.835083,2082.782959 
	C1467.847534,2085.351074 1467.837158,2087.919434 1467.837158,2091.459717 
	C1462.732666,2091.727295 1458.532837,2092.132812 1454.333496,2092.126953 
	C1447.012573,2092.116699 1439.687256,2091.608643 1432.371948,2091.745605 
	C1416.556885,2092.041504 1409.704102,2097.864746 1407.780151,2113.393799 
	C1406.849609,2120.905273 1407.308838,2128.587646 1407.113159,2136.192139 
	C1407.055542,2138.431152 1406.910156,2140.667969 1406.807007,2142.865967 
	C1401.256226,2145.362305 1396.860840,2143.113770 1393.450073,2140.180420 
	C1387.949097,2135.449707 1383.064819,2129.974609 1378.134155,2124.617188 
	C1374.988403,2121.199219 1372.395264,2117.273926 1369.259644,2113.845703 
	C1363.388550,2107.426758 1356.416626,2105.239746 1347.613525,2107.413574 
	C1332.113525,2111.240967 1316.341675,2113.978516 1300.872314,2117.913574 
	C1292.866577,2119.950439 1285.229370,2123.486084 1277.495972,2126.523193 
	C1273.269409,2128.183105 1271.698120,2130.854248 1272.828247,2135.916260 
	C1275.577393,2148.230469 1271.656250,2152.462402 1258.906738,2151.536865 
	C1250.614868,2150.934570 1242.830444,2148.990967 1235.275879,2144.742920 
	C1221.378906,2136.928711 1207.183472,2129.418701 1192.470093,2123.336182 
	C1170.645142,2114.313477 1147.943237,2112.486816 1125.087158,2119.897949 
	C1120.396973,2121.418945 1116.065063,2121.239502 1111.444946,2119.873291 
	C1078.086426,2110.007568 1043.963745,2105.355713 1009.241943,2103.371826 
	C974.913940,2101.410889 940.759460,2102.456299 906.617188,2105.512207 
	C877.144348,2108.149902 847.720764,2111.338623 816.969177,2114.403320 
	C815.085632,2114.754150 814.540100,2115.044922 814.026245,2115.395020 
	C808.287659,2116.167236 805.983521,2113.374512 806.423645,2107.925537 
	C806.663879,2104.951172 807.462402,2101.987793 807.404785,2099.031494 
	C807.329895,2095.186768 806.654236,2091.353760 806.087708,2086.141357 
	C802.931274,2088.341309 801.248230,2089.781250 799.339050,2090.795898 
	C793.109070,2094.107422 786.859192,2095.104248 780.518188,2090.822021 
	C744.287842,2066.353760 705.512268,2046.445068 666.444885,2027.033813 
	C651.847290,2019.780762 637.385986,2012.214111 623.193848,2004.203613 
	C617.377014,2000.920410 611.733521,2000.014526 605.206116,2000.157227 
	C569.960571,2000.928955 537.446777,1991.700439 507.900238,1972.364624 
	C504.849304,1970.367798 501.873566,1968.147461 499.244385,1965.632202 
	C480.914795,1948.096802 458.540039,1940.973145 433.779938,1940.409790 
	C417.805359,1940.046387 401.814880,1940.382812 384.416504,1940.334473 
	C383.001495,1940.263550 382.014191,1940.203247 382.014191,1940.203247 
	C338.787506,1932.412720 307.712158,1907.614746 285.606445,1870.684814 
	C268.435974,1841.999756 259.104614,1810.488525 253.747208,1777.706665 
	C251.919769,1766.524658 247.784378,1756.322021 239.642303,1748.561890 
	C234.992203,1744.130005 228.983368,1739.859863 222.920929,1738.513916 
	C216.314529,1737.047363 214.335724,1733.479004 212.527878,1728.231323 
	C205.480591,1707.775391 199.205765,1686.990356 190.962860,1667.021362 
	C168.230545,1611.951294 144.801361,1557.166504 121.354141,1502.394531 
	C105.897072,1466.287231 89.889374,1430.416016 74.211502,1394.402832 
	C65.804245,1375.090576 63.852909,1354.611206 63.684994,1333.844849 
	C63.636517,1327.849609 63.618839,1321.854248 63.632530,1314.437744 
	C63.678017,1313.016602 63.672840,1312.022217 63.672844,1312.022217 
	C64.160202,1308.789673 64.647560,1305.557129 65.257164,1301.513672 
	C68.500427,1301.749023 71.348671,1302.008423 74.202721,1302.153687 
	C85.192711,1302.712891 90.505135,1298.035278 90.122345,1286.871948 
	C89.862366,1279.289429 88.509506,1271.696167 87.106544,1264.208740 
	C77.080841,1210.703003 59.944748,1159.512207 36.374496,1110.481812 
	C28.032862,1093.129639 19.287493,1075.968628 10.515689,1058.828247 
	C8.590729,1055.066772 5.768771,1051.764526 2.679968,1048.125366 
	C2.000000,1045.222168 2.000000,1042.444458 1.999998,1038.833252 
	C3.393000,1034.336182 5.466334,1030.781738 6.074721,1026.991943 
	C12.827704,984.925720 19.132208,942.786926 26.004793,900.740784 
	C32.618423,860.278992 40.875717,820.206665 54.874874,781.478333 
	C70.076965,739.422058 93.282372,702.442322 124.817123,670.923218 
	C144.588211,651.161926 165.818588,632.866943 185.780228,613.288025 
	C203.578873,595.830566 220.774475,577.736877 237.763443,559.484009 
	C246.734238,549.845825 251.991730,537.822571 256.072296,525.366760 
	C271.009888,479.770447 269.385590,486.457214 298.440521,457.096161 
	C320.008728,435.300720 341.291199,413.187744 363.588074,392.156738 
	C393.121399,364.300049 423.423737,337.253937 453.589417,310.074646 
	C467.424988,297.608795 484.124573,294.929382 502.144409,296.839691 
	C516.693359,298.382111 531.312805,299.304932 545.917603,300.244873 
	C549.872864,300.499420 553.891907,299.863800 557.875244,299.554291 
	C562.245117,299.214752 565.339844,297.367706 566.597290,292.766022 
	C567.469666,289.573425 568.760925,286.446533 570.237061,283.475128 
	C588.210571,247.295792 615.012573,221.402039 655.691284,213.333923 
	C666.527771,211.184647 678.266907,212.045776 689.381104,213.336884 
	C697.911987,214.327911 705.475159,213.633987 712.101135,208.605545 
	C722.422363,200.772781 732.525146,192.611237 742.278564,184.083572 
	C750.793945,176.638382 758.555115,168.336243 766.944275,160.738235 
	C770.348511,157.654953 774.237854,154.733063 778.424988,152.967072 
	C786.897705,149.393585 792.077881,152.922272 792.189148,162.207565 
	C792.276550,169.507660 791.447937,176.816620 791.100891,184.125183 
	C790.979797,186.675323 791.081543,189.236069 791.081543,192.813950 
	C793.620789,191.794754 795.564453,191.418091 797.025452,190.369141 
	C831.700073,165.473221 870.278870,148.246933 909.866272,133.075989 
	C932.568054,124.376053 955.784058,116.939064 978.145447,107.463188 
	C989.263916,102.751625 998.322510,105.341721 1007.372559,110.410789 
	C1014.283142,114.281548 1020.402100,119.585732 1026.789429,124.364395 
	C1031.584961,127.952286 1036.025269,132.057831 1041.021240,135.325256 
	C1048.450439,140.184097 1056.469849,143.125336 1065.596069,140.207077 
	C1067.110718,139.722717 1068.846191,139.928894 1071.740723,139.728729 
	C1072.307495,150.855927 1073.253418,161.669754 1073.251831,172.483429 
	C1073.250977,178.395584 1072.107788,184.421921 1070.672607,190.196121 
	C1067.523438,202.865372 1059.565918,211.378830 1046.754150,214.477249 
	C1040.010254,216.108231 1033.008057,217.411163 1026.106567,217.491608 
	C1013.146912,217.642685 1000.145752,216.029129 987.215454,216.530243 
	C960.969421,217.547394 934.653015,218.483047 908.555786,221.247452 
	C851.375977,227.304321 797.312256,244.794983 745.219421,268.677856 
	C712.478821,283.688293 681.166992,301.390503 650.159119,319.647888 
	C613.417175,341.281586 576.827576,363.180664 539.859619,384.421051 
	C516.530640,397.824951 496.380676,415.000427 476.996704,433.393555 
	C456.957214,452.408722 436.046387,470.513885 416.210724,489.733337 
	C393.502563,511.736084 371.338440,534.314331 349.343658,557.035339 
	C326.830048,580.292175 306.851288,605.686707 288.366150,632.240112 
	C259.248840,674.066467 236.235397,719.002930 220.329498,767.463928 
	C207.611435,806.212402 199.851212,845.970825 195.792023,886.568665 
	C191.223694,932.258728 185.784073,977.861328 180.768982,1023.507019 
	C178.370071,1045.340942 175.938751,1067.172852 173.792404,1089.032227 
	C172.704071,1100.116333 169.923355,1110.590210 164.947021,1120.560913 
	C160.042465,1130.387817 155.178955,1140.249512 150.750671,1150.295776 
	C146.076355,1160.900391 145.181458,1171.958984 146.911728,1183.536621 
	C153.356995,1226.663818 159.434204,1269.846191 165.572083,1313.018921 
	C165.935135,1315.572510 165.619141,1318.222656 165.619141,1321.748779 
	C162.478317,1320.354492 159.950821,1319.085449 157.319138,1318.092773 
	C150.598831,1315.558105 145.247559,1317.115845 142.466385,1323.765015 
	C140.636612,1328.139526 139.357819,1333.755615 140.494324,1338.123047 
	C142.208328,1344.709717 145.580872,1351.148682 149.468842,1356.812744 
	C154.211807,1363.722534 159.704483,1363.890869 166.560196,1358.705566 
	C168.356979,1357.346558 169.956177,1355.726440 172.787979,1353.212769 
	C175.608276,1358.586426 178.371338,1362.999268 180.339645,1367.742065 
	C191.575699,1394.816162 203.012939,1421.816650 213.638489,1449.131348 
	C228.100250,1486.307861 249.088150,1519.054810 277.003632,1547.554688 
	C298.904510,1569.913940 319.733978,1593.344360 342.051178,1615.269043 
	C373.396149,1646.062744 405.613190,1675.971802 437.580597,1706.128296 
	C463.978027,1731.030396 490.666687,1755.624023 517.015137,1780.577271 
	C536.842957,1799.355469 556.433655,1818.387817 575.908142,1837.532593 
	C580.638977,1842.183472 585.321960,1844.445068 591.976990,1842.378662 
	C596.402039,1841.004761 601.109009,1840.542358 605.686646,1839.655640 
	C616.977295,1837.468628 627.680969,1834.189087 634.704163,1822.740356 
	C640.102966,1831.129272 638.189392,1838.355713 633.504272,1844.414429 
	C628.954224,1850.298462 622.939026,1855.049805 617.131470,1860.724243 
	C618.332275,1861.765747 619.628540,1863.240723 621.226929,1864.225342 
	C665.964661,1891.781494 713.560425,1911.819824 766.140869,1918.180298 
	C785.616577,1920.536133 805.214661,1921.887939 824.761902,1923.642578 
	C865.581604,1927.307129 906.110718,1933.120728 946.294067,1941.077271 
	C973.066284,1946.378174 999.592468,1952.913330 1026.316406,1958.474609 
	C1031.309570,1959.513794 1036.980225,1959.589600 1041.894043,1958.349976 
	C1075.884521,1949.774414 1110.285400,1944.054932 1145.259766,1941.517334 
	C1155.059326,1940.806396 1165.255127,1940.953491 1173.277466,1933.176514 
	C1180.882812,1925.803711 1189.245605,1919.213623 1196.879028,1911.867432 
	C1198.776123,1910.041626 1199.633667,1906.710205 1200.113159,1903.923584 
	C1201.172607,1897.766113 1201.687988,1891.515015 1202.552979,1884.228027 
	C1206.321533,1886.491211 1209.173218,1888.203735 1212.550781,1890.232178 
	C1215.376953,1884.716187 1214.133911,1879.826904 1213.030029,1875.094971 
	C1211.998535,1870.672974 1210.404053,1866.382446 1208.472290,1860.145264 
	C1223.604492,1869.461060 1229.396240,1884.249268 1239.762695,1896.012329 
	C1242.662598,1891.989624 1244.959839,1888.398438 1247.658569,1885.139648 
	C1254.225708,1877.209106 1256.569580,1877.087524 1265.014526,1884.178101 
	C1266.674316,1875.629639 1268.274414,1867.388672 1269.923340,1858.896606 
	C1278.965576,1860.123291 1278.005249,1869.322510 1283.714722,1872.257690 
	C1288.591797,1871.927979 1288.480957,1867.375366 1289.860107,1864.320190 
	C1295.535034,1851.750000 1299.196655,1849.802490 1313.109985,1851.412231 
	C1318.693970,1852.058228 1324.394531,1851.697144 1331.232666,1852.071045 
	C1332.423218,1852.347778 1332.999146,1852.855835 1332.999146,1852.855835 
	C1332.788330,1857.475464 1331.820435,1862.217407 1332.541992,1866.686523 
	C1333.658325,1873.599731 1338.840088,1876.389160 1345.078003,1873.309814 
	C1350.054321,1870.853027 1354.417114,1867.063965 1358.835205,1863.590210 
	C1363.726196,1859.744385 1368.370117,1855.584106 1373.958130,1850.852661 
	C1376.407104,1854.399414 1378.222168,1857.026245 1380.035278,1859.654419 
	C1388.706665,1872.224854 1399.038330,1876.097534 1412.791138,1869.432373 
	C1426.189331,1862.938965 1439.122070,1855.182861 1451.399658,1846.732300 
	C1507.584351,1808.060913 1564.156860,1769.897583 1619.269043,1729.738892 
	C1677.068848,1687.621826 1733.359619,1643.434204 1790.328125,1600.175659 
	C1793.434082,1597.817139 1796.708862,1595.680786 1800.510010,1593.016846 
	C1803.834595,1600.001587 1801.347534,1606.262817 1801.447754,1613.695068 
	C1801.082642,1616.647827 1800.960449,1618.226562 1800.838135,1619.805298 
	C1801.341797,1619.883301 1801.845459,1619.961304 1802.349121,1620.039307 
	C1802.919189,1618.057129 1803.489258,1616.074951 1804.059326,1614.092896 
M154.180679,1443.789673 
	C154.180679,1443.789673 154.312576,1444.199951 154.312576,1444.199951 
	C154.312576,1444.199951 154.130203,1443.700928 153.985107,1442.166016 
	C151.178772,1432.621826 148.557144,1423.017944 145.492477,1413.557373 
	C143.823364,1408.405029 141.066147,1407.100830 137.468369,1408.798218 
	C133.169708,1410.826172 130.241165,1416.276611 132.764893,1419.375122 
	C139.572433,1427.733276 147.059875,1435.537842 154.180679,1443.789673 
M206.070755,1479.815063 
	C206.070755,1479.815063 205.708191,1479.928223 205.337601,1478.600220 
	C198.292557,1463.566040 191.292313,1448.510742 184.181885,1433.507568 
	C181.053284,1426.906006 177.951645,1420.268433 174.356171,1413.919922 
	C172.172150,1410.063599 169.445099,1406.227417 162.821030,1405.326416 
	C164.229919,1408.738037 164.970230,1411.128174 166.146622,1413.279907 
	C172.546326,1424.986084 177.992523,1436.707886 178.883148,1450.598389 
	C179.923965,1466.831299 190.644226,1475.820679 206.070755,1479.815063 
z"/>
<path fill="#CE7650" opacity="1.000000" stroke="none" 
	d="
M1963.523438,910.003235 
	C1963.523438,925.596558 1963.523438,941.189941 1963.523438,956.665527 
	C1970.833252,958.720703 1974.065430,954.644836 1977.141968,950.837463 
	C1979.425781,948.011169 1981.252197,944.780579 1983.036621,941.592529 
	C1987.230957,934.098328 1993.076904,928.398254 2001.394897,924.308533 
	C2002.000000,926.133362 2002.000000,928.266663 2002.000000,931.199951 
	C1996.119019,950.672485 1989.239868,969.098938 1984.562866,988.068237 
	C1974.509644,1028.843018 1968.848755,1070.387451 1965.614136,1112.256348 
	C1965.153442,1118.220825 1964.480469,1124.168945 1963.160889,1130.989990 
	C1961.666748,1131.881470 1960.917603,1131.907349 1960.168457,1131.933350 
	C1956.023315,1114.966064 1954.852173,1097.651978 1956.129395,1080.372559 
	C1958.015747,1054.851929 1960.989746,1029.411987 1963.454590,1003.933289 
	C1963.790771,1000.457275 1963.862061,996.955566 1964.164429,991.517212 
	C1960.266479,994.796753 1958.108398,996.732605 1955.826904,998.510193 
	C1947.893311,1004.691711 1940.592529,1003.196106 1936.443359,993.974365 
	C1934.726929,990.159668 1934.318970,985.679810 1933.760742,981.443787 
	C1933.284668,977.830688 1933.749390,974.091736 1933.250366,970.484192 
	C1932.595703,965.752258 1930.710693,961.488953 1926.388306,958.819397 
	C1906.362061,946.451233 1891.647217,928.630127 1878.941284,909.532471 
	C1866.253296,890.461731 1855.737061,869.941956 1844.364868,850.002563 
	C1840.918213,843.959412 1840.548584,837.960815 1842.912109,830.969177 
	C1847.833618,816.409973 1850.218506,801.261658 1849.348389,784.445374 
	C1849.004150,782.552551 1848.690796,782.069092 1848.249146,781.668823 
	C1847.062866,754.269775 1834.057617,733.727905 1811.416260,719.038147 
	C1798.165771,710.441223 1785.556763,701.026917 1777.774902,687.078369 
	C1772.143188,676.983643 1768.047485,665.996704 1763.679932,655.239868 
	C1756.049072,636.445618 1749.003296,617.463623 1745.421875,597.350342 
	C1742.843750,582.871826 1742.843750,568.359070 1743.467041,552.502869 
	C1743.039429,550.675781 1742.577637,550.401917 1741.951660,550.405090 
	C1735.943726,553.257935 1729.934937,556.109253 1723.927979,558.964172 
	C1719.421753,561.105835 1714.993164,563.431519 1710.398926,565.363464 
	C1695.055298,571.815552 1681.425659,570.184143 1667.359741,559.984558 
	C1608.035645,516.967041 1548.269897,474.553253 1488.401001,432.293610 
	C1434.756958,394.427795 1379.454712,359.115814 1322.460693,326.472687 
	C1314.503906,321.915497 1306.403564,319.735504 1297.006592,319.387482 
	C1264.395020,318.179749 1232.863525,311.329193 1203.599854,296.460938 
	C1186.285889,287.664093 1170.575684,276.383667 1158.415405,260.855560 
	C1147.123657,246.436615 1144.619995,230.486771 1152.509766,213.998306 
	C1159.949219,198.450790 1173.799316,191.522125 1190.517700,190.494080 
	C1202.145508,189.779053 1213.845093,189.438568 1225.477417,189.873367 
	C1233.008057,190.154831 1240.475342,192.136536 1248.722534,193.478683 
	C1250.566772,190.789200 1252.718994,187.499146 1255.022949,184.319000 
	C1261.691406,175.114456 1270.281860,170.259003 1282.115723,170.187469 
	C1304.076660,170.054749 1326.037598,168.329620 1347.988159,168.513962 
	C1378.636719,168.771347 1409.125366,171.014465 1438.977173,179.091888 
	C1509.040649,198.049973 1574.745850,226.483765 1634.395508,268.172211 
	C1671.442139,294.063721 1705.091675,323.806458 1733.226318,359.291870 
	C1742.080200,370.459045 1749.037964,383.152649 1756.628418,395.294586 
	C1815.794067,489.938293 1874.873047,584.636169 1934.099731,679.241638 
	C1937.713135,685.013611 1940.343506,690.842346 1941.135986,697.650818 
	C1947.367554,751.196594 1953.919556,804.705994 1959.887939,858.280640 
	C1961.579956,873.469604 1961.669800,888.837097 1962.496216,905.453125 
	C1962.498047,906.783630 1962.431885,907.615173 1962.573975,908.031006 
	C1962.938843,908.989624 1963.207886,909.508484 1963.523438,910.003235 
z"/>
<path fill="#CF7650" opacity="1.000000" stroke="none" 
	d="
M1154.150635,1245.919556 
	C1177.213989,1293.672974 1199.974976,1340.744263 1222.696411,1387.834717 
	C1240.208618,1424.128662 1257.661499,1460.451294 1275.158813,1496.752441 
	C1302.053955,1552.550537 1328.990356,1608.328613 1355.838745,1664.149048 
	C1359.547119,1671.859619 1362.852173,1679.764160 1367.051270,1689.161987 
	C1361.558105,1689.626343 1357.470703,1690.268433 1353.382568,1690.272827 
	C1292.396118,1690.338379 1231.409546,1690.320435 1170.423096,1690.319214 
	C1164.091187,1690.319092 1157.745972,1690.041260 1151.431396,1690.367310 
	C1145.967896,1690.649414 1142.924438,1688.447510 1140.783936,1683.442993 
	C1132.796997,1664.769287 1124.446655,1646.251587 1116.303955,1627.644165 
	C1090.001343,1567.538940 1063.713257,1507.427368 1037.451782,1447.304199 
	C1010.389832,1385.348755 983.366516,1323.376221 956.322449,1261.412842 
	C953.657837,1255.307617 950.872009,1249.253052 948.318970,1243.101685 
	C946.478882,1238.668091 943.751038,1236.263062 938.565186,1236.292358 
	C910.572510,1236.449951 882.577942,1236.274292 854.585266,1236.436035 
	C847.596069,1236.476318 846.759033,1237.640381 846.404907,1244.799072 
	C846.223999,1248.456543 846.333740,1252.129150 846.333679,1255.794922 
	C846.331177,1395.097412 846.331299,1534.400024 846.330994,1673.702515 
	C846.330994,1678.619019 846.331055,1683.535645 846.331055,1687.985107 
	C837.461426,1690.764038 653.300110,1691.342896 640.926453,1688.907715 
	C640.552551,1686.657104 639.931274,1684.144043 639.763245,1681.601196 
	C639.543823,1678.282227 639.670288,1674.939575 639.670288,1671.607056 
	C639.668335,1308.687256 639.668457,945.767517 639.668457,582.847778 
	C639.668457,577.273804 639.668457,571.699829 639.668457,565.286438 
	C644.932800,564.901672 648.817810,564.371765 652.703064,564.369812 
	C743.016418,564.324585 833.340942,563.468384 923.639343,564.633179 
	C987.387512,565.455383 1050.529907,572.704956 1111.343994,593.673584 
	C1156.974243,609.406799 1198.349365,632.203796 1232.455322,666.978638 
	C1266.183350,701.368164 1287.643555,742.546814 1299.817871,788.859131 
	C1311.189453,832.118530 1313.876709,876.153198 1311.726440,920.636658 
	C1309.615234,964.312500 1300.254639,1006.338806 1282.703003,1046.409546 
	C1256.543335,1106.132324 1214.894287,1151.834839 1157.717041,1183.280884 
	C1149.313232,1187.902832 1140.791870,1192.310913 1131.420166,1197.299438 
	C1138.110474,1213.932617 1146.192017,1229.491211 1154.150635,1245.919556 
M913.685303,717.222595 
	C913.211060,716.883179 912.682617,716.725220 910.227783,716.497070 
	C891.908081,716.449341 873.587524,716.282898 855.269043,716.410583 
	C847.616821,716.463867 846.749817,717.567200 846.386780,725.107178 
	C846.258667,727.766357 846.333130,730.435791 846.332947,733.100586 
	C846.330627,776.404419 846.330139,819.708313 846.331116,863.012146 
	C846.332642,933.297607 846.315857,1003.583069 846.357788,1073.868530 
	C846.364624,1085.299683 846.718506,1085.612183 858.239258,1085.654907 
	C877.226074,1085.725220 896.213379,1085.685547 915.200439,1085.677979 
	C935.887939,1085.669678 956.397766,1083.734985 976.667664,1079.604980 
	C1032.074219,1068.315796 1069.958496,1037.050293 1085.431030,981.771545 
	C1099.779907,930.507385 1100.946045,878.542114 1088.596680,826.728882 
	C1076.031250,774.009094 1042.735962,740.898560 990.359192,726.998840 
	C965.443298,720.386719 940.143433,716.895325 913.685303,717.222595 
z"/>
<path fill="#A4705A" opacity="1.000000" stroke="none" 
	d="
M1803.457031,1614.150024 
	C1803.489258,1616.074951 1802.919189,1618.057129 1802.349121,1620.039307 
	C1801.845459,1619.961304 1801.341797,1619.883301 1800.838135,1619.805298 
	C1800.960449,1618.226562 1801.082642,1616.647827 1801.426270,1614.596680 
	C1802.050049,1614.151978 1802.452393,1614.179565 1803.457031,1614.150024 
z"/>
<path fill="#AD7158" opacity="1.000000" stroke="none" 
	d="
M1960.154053,1132.491943 
	C1960.917603,1131.907349 1961.666748,1131.881470 1962.978149,1131.848145 
	C1963.146851,1133.475342 1962.753296,1135.109863 1962.359619,1136.744263 
	C1961.619629,1135.513062 1960.879639,1134.281982 1960.154053,1132.491943 
z"/>
<path fill="#CE7650" opacity="1.000000" stroke="none" 
	d="
M1646.893433,1915.173828 
	C1646.892944,1915.484253 1646.534058,1916.143677 1646.000122,1916.515381 
	C1646.061646,1915.992676 1646.298462,1915.757812 1646.893433,1915.173828 
z"/>
<path fill="#CE7650" opacity="1.000000" stroke="none" 
	d="
M1206.911133,1857.169189 
	C1206.862305,1857.084717 1206.959961,1857.253784 1206.911133,1857.169189 
z"/>
<path fill="#CE7650" opacity="1.000000" stroke="none" 
	d="
M1332.138916,1852.089355 
	C1332.303101,1852.003540 1332.751465,1852.175903 1333.099487,1852.602051 
	C1332.999146,1852.855835 1332.423218,1852.347778 1332.138916,1852.089355 
z"/>
<path fill="#6C6C68" opacity="1.000000" stroke="none" 
	d="
M63.542336,1312.246094 
	C63.672840,1312.022217 63.678017,1313.016602 63.570747,1313.501465 
	C63.254818,1313.487305 63.237602,1312.981934 63.542336,1312.246094 
z"/>
<path fill="#6D6C69" opacity="1.000000" stroke="none" 
	d="
M382.229736,1940.348877 
	C382.014191,1940.203247 383.001495,1940.263550 383.477905,1940.390991 
	C383.954346,1940.518433 383.197449,1940.657593 383.197449,1940.657593 
	C383.197449,1940.657593 382.445282,1940.494629 382.229736,1940.348877 
z"/>
<path fill="#AD7158" opacity="1.000000" stroke="none" 
	d="
M814.502930,2115.355225 
	C814.540100,2115.044922 815.085632,2114.754150 816.111145,2114.389160 
	C816.129517,2114.753174 815.602905,2115.106445 814.502930,2115.355225 
z"/>
<path fill="#AD7158" opacity="1.000000" stroke="none" 
	d="
M1963.667358,909.521851 
	C1963.207886,909.508484 1962.938843,908.989624 1962.943115,908.133667 
	C1963.170044,907.820618 1963.908447,908.040222 1963.908447,908.040222 
	C1963.876099,908.373657 1963.843628,908.707031 1963.667358,909.521851 
z"/>
<path fill="#706C67" opacity="1.000000" stroke="none" 
	d="
M1963.767334,907.665649 
	C1963.908447,908.040222 1963.170044,907.820618 1962.801025,907.717896 
	C1962.431885,907.615173 1962.498047,906.783630 1962.608887,906.382202 
	C1963.095581,906.366699 1963.397705,906.803467 1963.767334,907.665649 
z"/>
<path fill="#706C67" opacity="1.000000" stroke="none" 
	d="
M1848.351196,782.084534 
	C1848.690796,782.069092 1849.004150,782.552551 1849.238037,783.549561 
	C1848.923584,783.534851 1848.645752,783.041565 1848.351196,782.084534 
z"/>
<path fill="#706C67" opacity="1.000000" stroke="none" 
	d="
M1742.186890,550.699707 
	C1742.577637,550.401917 1743.039429,550.675781 1743.416016,551.639282 
	C1743.109131,551.728333 1742.751465,551.375793 1742.186890,550.699707 
z"/>
<path fill="#546A6F" opacity="1.000000" stroke="none" 
	d="
M205.854767,1479.857056 
	C190.644226,1475.820679 179.923965,1466.831299 178.883148,1450.598389 
	C177.992523,1436.707886 172.546326,1424.986084 166.146622,1413.279907 
	C164.970230,1411.128174 164.229919,1408.738037 162.821030,1405.326416 
	C169.445099,1406.227417 172.172150,1410.063599 174.356171,1413.919922 
	C177.951645,1420.268433 181.053284,1426.906006 184.181885,1433.507568 
	C191.292313,1448.510742 198.292557,1463.566040 205.565643,1479.250244 
	C205.793701,1479.900146 205.854767,1479.857056 205.854767,1479.857056 
z"/>
<path fill="#546A6F" opacity="1.000000" stroke="none" 
	d="
M154.277481,1443.562012 
	C147.059875,1435.537842 139.572433,1427.733276 132.764893,1419.375122 
	C130.241165,1416.276611 133.169708,1410.826172 137.468369,1408.798218 
	C141.066147,1407.100830 143.823364,1408.405029 145.492477,1413.557373 
	C148.557144,1423.017944 151.178772,1432.621826 154.095627,1442.899902 
	C154.206146,1443.633911 154.277481,1443.562012 154.277481,1443.562012 
z"/>
<path fill="#546A6F" opacity="1.000000" stroke="none" 
	d="
M154.168182,1443.667480 
	C154.130203,1443.700928 154.312576,1444.199951 154.312576,1444.199951 
	C154.312576,1444.199951 154.180679,1443.789673 154.229080,1443.675781 
	C154.277481,1443.562012 154.206146,1443.633911 154.168182,1443.667480 
z"/>
<path fill="#546A6F" opacity="1.000000" stroke="none" 
	d="
M205.750946,1479.914185 
	C205.708191,1479.928223 206.070755,1479.815063 205.962769,1479.836060 
	C205.854767,1479.857056 205.793701,1479.900146 205.750946,1479.914185 
z"/>
<path fill="#4C6971" opacity="1.000000" stroke="none" 
	d="
M914.315857,717.781128 
	C940.143433,716.895325 965.443298,720.386719 990.359192,726.998840 
	C1042.735962,740.898560 1076.031250,774.009094 1088.596680,826.728882 
	C1100.946045,878.542114 1099.779907,930.507385 1085.431030,981.771545 
	C1069.958496,1037.050293 1032.074219,1068.315796 976.667664,1079.604980 
	C956.397766,1083.734985 935.887939,1085.669678 915.200439,1085.677979 
	C896.213379,1085.685547 877.226074,1085.725220 858.239258,1085.654907 
	C846.718506,1085.612183 846.364624,1085.299683 846.357788,1073.868530 
	C846.315857,1003.583069 846.332642,933.297607 846.331116,863.012146 
	C846.330139,819.708313 846.330627,776.404419 846.332947,733.100586 
	C846.333130,730.435791 846.258667,727.766357 846.386780,725.107178 
	C846.749817,717.567200 847.616821,716.463867 855.269043,716.410583 
	C873.587524,716.282898 891.908081,716.449341 911.499512,716.856628 
	C913.251953,717.497742 913.766846,717.686096 914.315857,717.781128 
z"/>
<path fill="#6D6C69" opacity="1.000000" stroke="none" 
	d="
M914.000610,717.501831 
	C913.766846,717.686096 913.251953,717.497742 912.435608,716.982422 
	C912.682617,716.725220 913.211060,716.883179 914.000610,717.501831 
z"/>
</svg>